<svg id="Lag_1" data-name="Lag 1" xmlns="http://www.w3.org/2000/svg" viewBox="0 0 1920.3 387"><defs><style>.cls-1{fill:#c1272d;}.cls-2{fill:#197c67;}.cls-3{fill:#1f8c72;}.cls-4{fill:#27a080;}.cls-5{fill:#2fb28c;}.cls-6{font-size:144.51px;fill:#fff;font-family:Arial-Black, Arial Black;font-weight:800;}.cls-7{letter-spacing:0.02em;}.cls-8{letter-spacing:0.01em;}</style></defs><rect class="cls-1" x="0.8" y="0.5" width="1919" height="375"/><path d="M1919,1V375H1V1H1919m1-1H0V376H1920V0Z" transform="translate(0.3)"/><path class="cls-2" d="M184.63,156a150.75,150.75,0,0,1-11.72-55.24C171.28,38.84,147.44,0,101.38,0,52.73,0,30.92,39,29.7,100.46a153.41,153.41,0,0,1-11.76,56.82C4.56,188.87-11.5,255.92,10.74,376L192,375.13C214.37,254.47,198.05,187.35,184.63,156Z" transform="translate(0.3)"/><path class="cls-3" d="M320.73,180.6a132.82,132.82,0,0,1-10.35-48.77c-1.44-54.61-22.49-88.9-63.14-88.9-43,0-62.21,34.46-63.28,88.68a135.5,135.5,0,0,1-10.38,50.16c-11.81,27.88-26,87.08-6.36,193.08l160-.77C347,267.57,332.57,208.32,320.73,180.6Z" transform="translate(0.3)"/><path class="cls-4" d="M448.58,204a117,117,0,0,1-9.1-42.89c-1.27-48-19.78-78.19-55.54-78.19-37.77,0-54.71,30.3-55.66,78A119,119,0,0,1,319.15,205c-10.38,24.53-22.85,76.59-5.59,169.83l140.76-.68C471.67,280.49,459,228.38,448.58,204Z" transform="translate(0.3)"/><path class="cls-5" d="M554.24,226a102.76,102.76,0,0,1-8-37.66c-1.11-42.18-17.36-68.66-48.76-68.66-33.17,0-48,26.61-48.87,68.49a104.59,104.59,0,0,1-8,38.73c-9.12,21.54-20.07,67.25-4.91,149.11l123.58-.6C574.52,293.15,563.39,247.4,554.24,226Z" transform="translate(0.3)"/><text class="cls-6" transform="translate(447.29 342.69)">Bist<tspan class="cls-7" x="312.93" y="0">r</tspan><tspan x="379.4" y="0">o B</tspan><tspan class="cls-8" x="636.38" y="0">a</tspan><tspan x="734.17" y="0">bushka</tspan></text></svg>
